HIERARCHY
ROOT Hips
{
	OFFSET	0.000000	0.000000	0.000000
	CHANNELS 6 Xposition Yposition Zposition Zrotation Xrotation Yrotation
	JOINT LeftHip
	{
		OFFSET	4.740440	-3.195970	-0.322709
		CHANNELS 3 Zrotation Xrotation Yrotation
		JOINT LeftKnee
		{
			OFFSET	-1.605680	-15.592300	1.005510
			CHANNELS 3 Zrotation Xrotation Yrotation
			JOINT LeftAnkle
			{
				OFFSET	-0.632401	-16.421000	-1.413730
				CHANNELS 3 Zrotation Xrotation Yrotation
				End Site
				{
					OFFSET	0.008423	-2.933000	-1.684880
				}
			}
		}
	}
	JOINT RightHip
	{
		OFFSET	-4.740440	-3.195970	-0.322709
		CHANNELS 3 Zrotation Xrotation Yrotation
		JOINT RightKnee
		{
			OFFSET	1.605680	-15.592300	1.005510
			CHANNELS 3 Zrotation Xrotation Yrotation
			JOINT RightAnkle
			{
				OFFSET	0.632401	-16.421000	-1.413730
				CHANNELS 3 Zrotation Xrotation Yrotation
				End Site
				{
					OFFSET	-0.008423	-2.933000	-1.684880
				}
			}
		}
	}
	JOINT Chest
	{
		OFFSET	0.000000	3.468200	0.078401
		CHANNELS 3 Zrotation Xrotation Yrotation
		JOINT LeftCollar
		{
			OFFSET	3.857650	15.070700	-0.011583
			CHANNELS 3 Zrotation Xrotation Yrotation
			JOINT LeftShoulder
			{
				OFFSET	3.979720	-1.940530	-0.165223
				CHANNELS 3 Zrotation Xrotation Yrotation
				JOINT LeftElbow
				{
					OFFSET	0.615844	-10.986600	-0.673886
					CHANNELS 3 Zrotation Xrotation Yrotation
					JOINT LeftWrist
					{
						OFFSET	0.826843	-10.854500	1.034220
						CHANNELS 3 Zrotation Xrotation Yrotation
						End Site
						{
							OFFSET	-1.679080	-8.456540	0.936217
						}
					}
				}
			}
		}
		JOINT RightCollar
		{
			OFFSET	-3.857650	15.070700	-0.011583
			CHANNELS 3 Zrotation Xrotation Yrotation
			JOINT RightShoulder
			{
				OFFSET	-3.979720	-1.940530	-0.165223
				CHANNELS 3 Zrotation Xrotation Yrotation
				JOINT RightElbow
				{
					OFFSET	-0.615845	-10.986600	-0.673886
					CHANNELS 3 Zrotation Xrotation Yrotation
					JOINT RightWrist
					{
						OFFSET	-0.826843	-10.854500	1.034220
						CHANNELS 3 Zrotation Xrotation Yrotation
						End Site
						{
							OFFSET	1.679080	-8.456540	0.936217
						}
					}
				}
			}
		}
		JOINT Neck
		{
			OFFSET	0.000000	15.101400	0.055730
			CHANNELS 3 Zrotation Xrotation Yrotation
			JOINT Head
			{
				OFFSET	0.000000	4.185120	1.488260
				CHANNELS 3 Zrotation Xrotation Yrotation
				End Site
				{
					OFFSET	0.000000	7.773420	-0.106016
				}
			}
		}
	}
}
MOTION
Frames:    16
Frame Time: 0.016667
0.114653	37.755970	-4.051368	1.517379	-9.327419	-20.528446	-2.461814	6.609869	3.804157	-4.899985	2.563842	8.912272	5.152596	-3.321161	9.104496	-19.311373	-1.449871	-5.722721	0.070631	16.817307	5.981062	13.387258	-5.511111	5.854313	-9.724348	9.154406	2.031652	1.769434	0.692474	2.628675	0.356560	-2.936638	3.411563	-2.545204	-7.958494	-2.960129	19.372610	2.733116	-13.921453	3.596630	-1.748916	-1.246244	-6.407875	-2.314286	2.602978	-1.091266	-9.313072	18.724073	-22.088148	-1.466028	16.956036	1.579331	5.960420	-7.832128	0.240412	2.971705	-9.640805	
0.114977	37.756180	-4.051851	1.513964	-9.326835	-20.534992	-2.459151	6.610247	3.810209	-4.899985	2.563842	8.912272	5.152596	-3.321161	9.104496	-19.305487	-1.449779	-5.724271	0.066156	16.815609	5.988875	13.387258	-5.511111	5.854313	-9.728662	9.148707	2.021868	1.776037	0.698069	2.645449	0.357138	-2.935312	3.424855	-2.547720	-7.959192	-2.973565	19.372610	2.733116	-13.921453	3.600123	-1.737590	-1.232216	-6.403872	-2.319644	2.604844	-1.091514	-9.314467	18.737928	-22.083368	-1.459874	16.958910	1.580873	5.992679	-7.809116	0.242888	2.964852	-9.653895	
0.117667	37.756550	-4.054196	1.504426	-9.325184	-20.553299	-2.454670	6.602952	3.801384	-4.897692	2.569702	8.938998	5.152596	-3.321161	9.104496	-19.288521	-1.449211	-5.730325	0.052632	16.810493	6.012537	13.387258	-5.511111	5.854313	-9.727900	9.142920	2.024884	1.781865	0.703009	2.660266	0.358839	-2.931448	3.463408	-2.555044	-7.961231	-3.012536	19.375704	2.742316	-13.913995	3.595841	-1.717550	-1.224754	-6.392620	-2.334721	2.610076	-1.092162	-9.318096	18.773531	-22.058304	-1.443457	16.969379	1.582375	6.019837	-7.789087	0.234519	3.004003	-9.680449	
0.118475	37.756477	-4.054684	1.504000	-9.325121	-20.554096	-2.455615	6.599424	3.791031	-4.896707	2.572222	8.950502	5.152596	-3.321161	9.104496	-19.285879	-1.448016	-5.736489	0.048479	16.808931	6.019783	13.387258	-5.511111	5.854313	-9.730168	9.140855	2.019534	1.784388	0.705150	2.666702	0.359410	-2.930130	3.476532	-2.557532	-7.961926	-3.025803	19.367649	2.761289	-13.903469	3.598133	-1.714551	-1.218742	-6.392094	-2.335398	2.610342	-1.092370	-9.319247	18.784792	-22.039904	-1.437554	16.968803	1.584191	6.023449	-7.782307	0.232321	3.018818	-9.685455	
0.119175	37.756386	-4.055070	1.504000	-9.325121	-20.554096	-2.456788	6.596170	3.780955	-4.895798	2.574509	8.960959	5.152596	-3.321161	9.104496	-19.281757	-1.445436	-5.749458	0.040687	16.805962	6.033441	13.387258	-5.511111	5.854313	-9.735146	9.136916	2.007756	1.789285	0.709301	2.679148	0.361053	-2.926348	3.514159	-2.564669	-7.963921	-3.063838	19.344105	2.864585	-13.910345	3.603552	-1.710009	-1.206428	-6.392094	-2.335398	2.610342	-1.092372	-9.319428	18.786339	-21.980835	-1.434307	16.992184	1.587927	6.027556	-7.769777	0.205661	3.026589	-9.655726	
0.119841	37.756294	-4.055436	1.504000	-9.325121	-20.554096	-2.457902	6.593087	3.771387	-4.894937	2.576674	8.970886	5.152596	-3.321161	9.104496	-19.281757	-1.445436	-5.749458	0.040687	16.805962	6.033441	13.387258	-5.511111	5.854313	-9.735146	9.136916	2.007756	1.789285	0.709301	2.679148	0.361605	-2.925064	3.526981	-2.558743	-7.968547	-3.075332	19.346329	2.907046	-13.919335	3.603552	-1.710009	-1.206428	-6.392094	-2.335398	2.610342	-1.092372	-9.319428	18.786339	-21.964306	-1.433263	16.989704	1.587927	6.027556	-7.769777	0.159576	3.035951	-9.603063	
0.119898	37.756290	-4.055470	1.504000	-9.325121	-20.554096	-2.458010	6.592825	3.770753	-4.894843	2.576873	8.971550	5.152596	-3.321161	9.104496	-19.281757	-1.445436	-5.749458	0.040687	16.805962	6.033441	13.387258	-5.511111	5.854313	-9.735146	9.136916	2.007756	1.789285	0.709301	2.679148	0.363366	-2.921022	3.567342	-2.562042	-7.972736	-3.115348	19.379759	3.047426	-13.942669	3.603552	-1.710009	-1.206428	-6.392094	-2.335398	2.610342	-1.092985	-9.322469	18.815607	-21.917477	-1.416792	16.951443	1.591920	6.026195	-7.761350	0.120100	3.043998	-9.570978	
0.120505	37.756210	-4.055803	1.504000	-9.325121	-20.554096	-2.459013	6.589993	3.761796	-4.894080	2.578850	8.980833	5.152596	-3.321161	9.104496	-19.281757	-1.445436	-5.749458	0.040687	16.805962	6.033441	13.387258	-5.511111	5.854313	-9.735146	9.136916	2.007756	1.789285	0.709301	2.679148	0.363959	-2.919683	3.580717	-2.570731	-7.970523	-3.129961	19.387375	3.050225	-13.941408	3.603552	-1.710009	-1.206428	-6.392094	-2.335398	2.610342	-1.093181	-9.323476	18.825188	-21.903088	-1.411463	16.939169	1.597143	6.024415	-7.750330	0.098777	3.048383	-9.563653	
0.120564	37.756207	-4.055840	1.504000	-9.325121	-20.554096	-2.459121	6.589725	3.761154	-4.893985	2.579051	8.981508	5.152596	-3.321161	9.104496	-19.281757	-1.445436	-5.749458	0.040687	16.805962	6.033441	13.387258	-5.511111	5.854313	-9.735146	9.136916	2.007756	1.789285	0.709301	2.679148	0.365581	-2.915937	3.617942	-2.577803	-7.972489	-3.167593	19.400375	3.096931	-13.942065	3.603552	-1.710009	-1.206428	-6.414357	-2.330231	2.610134	-1.071928	-9.332644	18.852646	-21.865267	-1.396032	16.904133	1.614971	6.018347	-7.712698	0.082498	3.051948	-9.603220	
0.120564	37.756207	-4.055840	1.504000	-9.325121	-20.554096	-2.459121	6.589725	3.761154	-4.893985	2.579051	8.981508	5.152596	-3.321161	9.104496	-19.281757	-1.445436	-5.749458	0.040687	16.805962	6.033441	13.387258	-5.511111	5.854313	-9.735146	9.136916	2.007756	1.789285	0.709301	2.679148	0.365999	-2.914988	3.627291	-2.579589	-7.972989	-3.177044	19.405451	3.115198	-13.942269	3.603552	-1.710009	-1.206428	-6.420414	-2.328823	2.610082	-1.066409	-9.336406	18.871935	-21.841936	-1.394983	16.888414	1.627818	6.013981	-7.685602	0.067374	3.051842	-9.613257	
0.120564	37.756207	-4.055840	1.504000	-9.325121	-20.554096	-2.459121	6.589725	3.761154	-4.893985	2.579051	8.981508	5.152596	-3.321161	9.104496	-19.281757	-1.445436	-5.749458	0.040687	16.805962	6.033441	13.387258	-5.511111	5.854313	-9.735146	9.136916	2.007756	1.789285	0.709301	2.679148	0.367266	-2.912056	3.656489	-2.585133	-7.974519	-3.206563	19.410706	3.134060	-13.942492	3.606062	-1.706759	-1.203185	-6.431728	-2.329724	2.606478	-1.058290	-9.341023	18.892265	-21.820993	-1.384696	16.881695	1.640101	6.009813	-7.659670	0.052754	3.046570	-9.603263	
0.120564	37.756207	-4.055840	1.504000	-9.325121	-20.554096	-2.459121	6.589725	3.761154	-4.893985	2.579051	8.981508	5.152596	-3.321161	9.104496	-19.281757	-1.445436	-5.749458	0.040687	16.805962	6.033441	13.387258	-5.511111	5.854313	-9.735146	9.136916	2.007756	1.789285	0.709301	2.679148	0.367725	-2.910994	3.667059	-2.587142	-7.975073	-3.217248	19.416311	3.154216	-13.942759	3.611968	-1.699127	-1.195578	-6.437573	-2.337224	2.608534	-1.060891	-9.343572	18.913845	-21.811556	-1.369704	16.858814	1.645641	6.007934	-7.647983	0.028773	3.053527	-9.603979	
0.120564	37.756207	-4.055840	1.504000	-9.325121	-20.554096	-2.459121	6.589725	3.761154	-4.893985	2.579051	8.981508	5.152596	-3.321161	9.104496	-19.281757	-1.445436	-5.749458	0.040687	16.805962	6.033441	13.387258	-5.511111	5.854313	-9.735146	9.136916	2.007756	1.789285	0.709301	2.679148	0.367829	-2.910787	3.668537	-2.587466	-7.975206	-3.218741	19.434620	3.220077	-13.943607	3.618305	-1.690930	-1.187408	-6.443826	-2.345322	2.611188	-1.063488	-9.344859	18.923231	-21.805616	-1.360151	16.854765	1.659231	6.003332	-7.619316	-0.007983	3.068084	-9.633073	
0.120564	37.756207	-4.055840	1.504000	-9.325121	-20.554096	-2.459121	6.589725	3.761154	-4.893985	2.579051	8.981508	5.152596	-3.321161	9.104496	-19.281757	-1.445436	-5.749458	0.040687	16.805962	6.033441	13.387258	-5.511111	5.854313	-9.735146	9.136916	2.007756	1.789285	0.709301	2.679148	0.367829	-2.910787	3.668537	-2.587466	-7.975206	-3.218741	19.440289	3.240501	-13.943858	3.625085	-1.682163	-1.178663	-6.450553	-2.353900	2.612758	-1.065996	-9.346057	18.931870	-21.804924	-1.351051	16.836962	1.663277	6.001968	-7.610797	-0.022928	3.074364	-9.641510	
0.120564	37.756207	-4.055840	1.504000	-9.325121	-20.554096	-2.459121	6.589725	3.761154	-4.893985	2.579051	8.981508	5.152596	-3.321161	9.104496	-19.281757	-1.445436	-5.749458	0.040687	16.805962	6.033441	13.387258	-5.511111	5.854313	-9.735146	9.136916	2.007756	1.789285	0.709301	2.679148	0.368184	-2.909928	3.677548	-2.589138	-7.975634	-3.227852	19.453690	3.288778	-13.944397	3.632226	-1.672919	-1.169460	-6.457890	-2.362281	2.603513	-1.066609	-9.348040	18.950483	-21.804224	-1.342156	16.819563	1.640581	6.017293	-7.594284	-0.026294	3.076178	-9.654705	
0.120564	37.756207	-4.055840	1.504000	-9.325121	-20.554096	-2.459121	6.589725	3.761154	-4.893985	2.579051	8.981508	5.152596	-3.321161	9.104496	-19.281757	-1.445436	-5.749458	0.040687	16.805962	6.033441	13.387258	-5.511111	5.854313	-9.735146	9.136916	2.007756	1.789285	0.709301	2.679148	0.369056	-2.907903	3.697214	-2.592896	-7.976710	-3.247735	19.461670	3.317572	-13.944862	3.639685	-1.663267	-1.159852	-6.465372	-2.371572	2.603078	-1.068910	-9.349276	18.959669	-21.803518	-1.333304	16.802219	1.627072	6.028219	-7.585054	-0.016244	3.070803	-9.666069	
